# xmcd
#
# Track frame offsets: 
#        150
#        19769
#        37063
#        54282
#        73082
#        91252
#        116048
#        135983
#        158563
#
# Disc length: 2349 seconds
#
# Revision: 0
# Processed by: cddbd v1.5.2PL0 Copyright (c) Steve Scherf et al.
# Submitted via: ExactAudioCopy v0.99pb4
#
DISCID=6e092b09
DTITLE=Nublues - Snow On The Tracks
DYEAR=2009
DGENRE=Blues
TTITLE0=The Last Breakdown
TTITLE1=War Exile
TTITLE2=No More Cloudy Days
TTITLE3=Save My Soul
TTITLE4=Howlin' At Midnight
TTITLE5=Been Around
TTITLE6=Fools Gold
TTITLE7=Alabama
TTITLE8=Travelin' Blues
EXTD=
EXTT0=
EXTT1=
EXTT2=
EXTT3=
EXTT4=
EXTT5=
EXTT6=
EXTT7=
EXTT8=
PLAYORDER=
